<?xml version="1.0" standalone="no"?>
<!DOCTYPE svg PUBLIC "-//W3C//DTD SVG 20010904//EN"
 "http://www.w3.org/TR/2001/REC-SVG-20010904/DTD/svg10.dtd">
<svg version="1.0" xmlns="http://www.w3.org/2000/svg"
 width="868.000000pt" height="532.000000pt" viewBox="0 0 868.000000 532.000000"
 preserveAspectRatio="xMidYMid meet">

<g transform="translate(0.000000,532.000000) scale(0.100000,-0.100000)"
fill="#000000" stroke="none">
<path d="M2810 4910 c-118 -22 -335 -79 -483 -126 -260 -84 -707 -278 -791
-345 -26 -21 -28 -25 -22 -73 48 -374 363 -725 884 -985 l115 -58 -129 -65
c-499 -250 -804 -588 -865 -957 -15 -89 -23 -80 161 -175 237 -122 613 -263
895 -336 175 -45 381 -84 396 -75 7 5 10 181 9 538 -2 523 -2 533 20 602 26
83 39 109 93 193 24 36 48 62 58 62 10 0 55 -9 101 -20 100 -23 282 -53 478
-77 184 -22 819 -25 1000 -4 165 19 409 57 524 83 l99 22 29 -35 c37 -43 112
-198 127 -261 7 -31 11 -224 11 -577 0 -470 2 -531 15 -531 39 0 339 65 462
100 331 94 708 245 914 366 l77 45 -5 42 c-35 312 -252 611 -617 851 -97 64
-234 140 -318 176 -32 14 -58 27 -58 30 0 3 55 33 123 67 224 113 453 276 578
410 77 82 163 205 207 295 44 91 82 226 82 295 0 40 -2 43 -57 76 -153 92
-432 211 -738 316 -200 68 -550 151 -637 151 l-27 0 -3 -552 -3 -553 -32 -78
c-43 -103 -119 -221 -138 -213 -36 14 -336 67 -480 85 -406 52 -795 53 -1195
5 -136 -16 -370 -56 -465 -79 l-60 -14 -27 32 c-38 44 -102 170 -125 242 -17
56 -18 99 -15 593 l2 532 -37 -1 c-21 0 -81 -9 -133 -19z m1680 -1385 c144
-17 248 -41 375 -85 104 -37 247 -108 240 -120 -11 -19 -221 -112 -312 -138
-193 -58 -273 -67 -558 -67 -231 1 -272 3 -363 23 -141 31 -251 67 -357 117
-144 68 -143 64 -39 117 141 72 326 129 485 147 52 6 108 13 124 15 80 9 293
4 405 -9z"/>
<path d="M7059 2401 c-35 -36 -37 -70 -5 -107 64 -75 177 6 132 94 -27 52 -82
57 -127 13z m101 -11 c11 -11 20 -29 20 -40 0 -24 -42 -70 -63 -70 -26 0 -67
41 -67 66 0 31 33 64 65 64 14 0 34 -9 45 -20z"/>
<path d="M7080 2345 c0 -25 5 -45 10 -45 6 0 10 10 10 23 l1 22 18 -22 c22
-27 36 -30 27 -7 -4 9 -1 23 5 30 19 23 3 44 -36 44 -35 0 -35 0 -35 -45z m55
25 c3 -5 -3 -10 -14 -10 -12 0 -21 5 -21 10 0 6 6 10 14 10 8 0 18 -4 21 -10z"/>
<path d="M8091 1134 c-43 -54 -11 -134 53 -134 50 0 86 33 86 79 0 76 -94 112
-139 55z m107 -6 c17 -17 15 -68 -5 -90 -20 -22 -66 -24 -87 -2 -9 8 -16 28
-16 44 0 16 7 36 16 44 18 19 75 21 92 4z"/>
<path d="M8124 1116 c-3 -8 -4 -31 -2 -52 4 -37 4 -38 14 -14 l11 24 12 -22
c7 -12 16 -20 22 -16 7 4 6 10 -1 19 -8 9 -8 15 0 20 16 10 12 42 -6 49 -26
10 -44 7 -50 -8z m46 -16 c0 -5 -6 -10 -14 -10 -8 0 -18 5 -21 10 -3 6 3 10
14 10 12 0 21 -4 21 -10z"/>
<path d="M6203 1081 c-92 -23 -113 -66 -113 -226 0 -128 11 -169 55 -203 27
-21 37 -22 254 -22 193 0 230 2 250 16 40 29 51 73 51 212 0 118 -2 132 -23
163 -38 57 -62 63 -262 66 -99 1 -195 -2 -212 -6z m310 -122 c33 -18 37 -28
37 -102 0 -58 -3 -71 -24 -92 -17 -17 -32 -23 -52 -20 -16 2 -66 4 -111 4
-105 1 -113 8 -113 105 0 72 10 98 40 109 29 10 201 7 223 -4z"/>
<path d="M7198 1080 c-23 -6 -23 -8 -26 -155 -2 -127 -5 -152 -19 -162 -11 -9
-53 -13 -118 -13 -137 0 -134 -5 -137 180 l-3 145 -70 0 -70 0 0 -175 c0 -169
1 -176 24 -209 39 -54 69 -61 261 -61 182 0 203 4 247 52 13 14 27 48 33 79
11 56 12 290 1 307 -7 12 -90 19 -123 12z"/>
<path d="M554 1066 c-3 -8 -4 -86 -2 -173 3 -143 5 -161 26 -194 38 -61 66
-69 261 -69 194 0 229 9 266 72 18 29 20 51 20 203 l0 170 -70 0 -70 0 -5
-146 c-4 -103 -9 -151 -19 -163 -20 -24 -222 -24 -242 0 -10 12 -15 60 -19
163 l-5 146 -68 3 c-52 2 -69 0 -73 -12z"/>
<path d="M1180 855 l0 -225 70 0 70 0 0 150 c0 83 3 150 8 149 4 0 60 -68 125
-150 l118 -149 120 0 119 0 -2 223 -3 222 -75 0 -74 0 0 -148 c-1 -81 -4 -146
-7 -145 -8 4 -92 107 -146 179 -22 30 -55 70 -73 87 l-32 32 -109 0 -109 0 0
-225z"/>
<path d="M1850 855 l0 -225 75 0 75 0 0 38 0 37 22 -37 22 -38 145 0 c161 0
196 9 235 63 19 25 21 43 21 157 0 146 -8 165 -81 207 -37 22 -49 23 -276 23
l-238 0 0 -225z m431 89 c21 -26 25 -139 5 -169 -16 -25 -18 -25 -151 -25
l-135 0 0 105 0 105 134 0 c110 0 136 -3 147 -16z"/>
<path d="M2525 1054 c-24 -26 -25 -30 -25 -195 0 -104 4 -178 11 -193 20 -42
49 -47 279 -44 l215 3 0 55 0 55 -175 5 -175 5 -3 55 c-2 50 -1 53 11 30 12
-25 14 -25 165 -28 84 -1 152 0 152 3 0 3 -11 28 -25 55 l-25 50 -141 0 c-140
0 -140 0 -137 23 3 22 6 22 173 27 l170 5 3 58 3 57 -226 0 -226 0 -24 -26z"/>
<path d="M3073 1073 c-10 -3 -13 -58 -13 -224 l0 -220 78 3 77 3 0 88 c0 48 2
87 5 87 4 0 14 -16 23 -35 l17 -35 99 0 c113 0 121 -5 121 -75 l0 -36 78 3 77
3 -1 58 c-1 43 -7 66 -24 89 -20 27 -21 31 -6 47 45 50 43 171 -4 221 l-28 30
-244 -1 c-133 0 -249 -3 -255 -6z m405 -156 c3 -32 0 -38 -24 -47 -15 -6 -75
-9 -133 -8 l-106 3 -3 33 c-6 63 -5 63 135 60 l128 -3 3 -38z"/>
<path d="M4175 1053 c-91 -157 -232 -420 -228 -425 2 -5 39 -8 82 -8 l77 0 28
58 c15 32 36 69 46 82 l18 24 17 -42 17 -42 93 0 94 0 22 -40 23 -40 78 0 c50
0 78 4 78 11 0 19 -213 403 -237 427 -19 19 -32 22 -107 22 -82 0 -85 -1 -101
-27z m175 -230 c0 -9 -21 -13 -71 -13 -39 0 -69 3 -67 8 2 4 18 35 37 70 l34
63 33 -58 c18 -32 34 -64 34 -70z"/>
<path d="M4686 1072 c-3 -5 -6 -105 -6 -223 l-2 -214 76 -3 75 -3 3 93 3 93
19 -37 19 -37 106 -3 106 -3 3 -30 c7 -76 5 -75 88 -75 l76 0 -4 71 c-3 59 -8
75 -26 90 l-22 18 25 25 c22 22 25 34 25 91 0 74 -18 128 -48 144 -25 13 -508
15 -516 3z m398 -118 c10 -4 16 -18 16 -40 0 -46 -23 -54 -161 -54 l-109 0 0
50 0 50 119 0 c66 0 126 -3 135 -6z"/>
<path d="M5294 1067 c-2 -7 -3 -107 -2 -222 l3 -210 70 0 70 0 3 145 3 145 78
-145 78 -145 69 -3 69 -2 80 150 80 151 3 -151 3 -151 67 3 67 3 0 220 0 220
-90 3 c-49 2 -100 0 -112 -3 -15 -3 -40 -41 -88 -132 -37 -71 -70 -132 -75
-136 -4 -5 -36 47 -70 115 -34 67 -69 131 -77 141 -13 14 -34 17 -120 17 -75
0 -105 -4 -109 -13z"/>
<path d="M7393 1073 c-10 -3 -13 -58 -13 -224 l0 -220 78 3 77 3 5 89 5 89 17
-36 18 -37 98 0 c63 0 102 -4 110 -12 7 -7 12 -32 12 -55 l0 -44 78 3 77 3 -2
60 c-2 42 -8 67 -24 88 -21 29 -21 29 -1 50 43 48 39 172 -9 219 l-27 28 -244
-1 c-134 0 -249 -3 -255 -6z m405 -156 c3 -32 0 -38 -24 -47 -15 -6 -75 -9
-133 -8 l-106 3 -3 33 c-6 63 -5 63 135 60 l128 -3 3 -38z"/>
</g>
</svg>
